<?xml version="1.0" encoding="UTF-8" standalone="no"?>
<svg
   xmlns:dc="http://purl.org/dc/elements/1.1/"
   xmlns:cc="http://creativecommons.org/ns#"
   xmlns:rdf="http://www.w3.org/1999/02/22-rdf-syntax-ns#"
   xmlns:svg="http://www.w3.org/2000/svg"
   xmlns="http://www.w3.org/2000/svg"
   viewBox="0 0 264.53335 197.60473"
   height="197.60474"
   width="264.53336"
   id="svg2"
   version="1.1">
  <metadata
     id="metadata8">
    <rdf:RDF>
      <cc:Work
         rdf:about="">
        <dc:format>image/svg+xml</dc:format>
        <dc:type
           rdf:resource="http://purl.org/dc/dcmitype/StillImage" />
        <dc:title></dc:title>
      </cc:Work>
    </rdf:RDF>
  </metadata>
  <defs
     id="defs6" />
  <path
     id="path12"
     d="m 102.24789,196.08 c -2.723657,-0.83852 -5.248897,-2.298 -5.611647,-3.24329 -0.36274,-0.9453 1.55937,-9.2258 4.271357,-18.40113 2.71199,-9.17533 11.05914,-38.04241 18.54925,-64.14908 C 148.18188,10.165688 150.86396,1.3146722 152.79064,0.28282218 c 2.20659,-1.181753 12.77627,1.58127402 14.64013,3.82708202 0.93007,1.120674 -2.24641,13.4906078 -13.75121,53.5502858 -32.51191,113.20628 -39.57349,137.24058 -40.73378,138.63865 -1.49715,1.80394 -4.31473,1.74631 -10.69789,-0.21884 z M 35.4607,135.61395 C 15.95732,116.10405 0,99.440892 0,98.584712 c 0,-2.5284 69.47165,-71.49821 72.01844,-71.49821 2.46207,0 12.24823,9.36834 12.24823,11.725285 0,0.835272 -13.06442,14.614835 -29.03206,30.621255 l -29.03206,29.10258 29.03206,29.156698 c 16.64476,16.71622 29.03206,29.98351 29.03206,31.09449 0,2.26795 -9.66789,12.2997 -11.85359,12.2997 -0.82042,0 -17.449,-15.96265 -36.95238,-35.47256 z m 149.98692,30.29161 c -2.84952,-2.84953 -5.18095,-5.95664 -5.18095,-6.90471 0,-0.94805 10.46472,-12.17663 23.25491,-24.95237 12.79021,-12.77576 25.83869,-26.00858 28.99662,-29.40628 l 5.74172,-6.177628 -28.99663,-29.06705 C 193.31515,53.410638 180.26667,39.730007 180.26667,38.996118 c 0,-2.346695 9.75757,-11.909616 12.15202,-11.909616 2.65817,0 72.11465,68.87789 72.11465,71.5139 0,2.165018 -70.07463,72.486108 -72.23204,72.486108 -0.91999,0 -4.00415,-2.33143 -6.85368,-5.18095 z"
     style="fill:#000000;stroke-width:1.06666672" />
</svg>
