<svg xmlns="http://www.w3.org/2000/svg" viewBox="0 0 264.53335 197.60473" height="197.605" width="264.533"><path d="M102.248 196.08c-2.724-.839-5.249-2.298-5.612-3.243-.362-.946 1.56-9.226 4.272-18.401 2.712-9.176 11.059-38.043 18.549-64.15C148.182 10.167 150.864 1.316 152.79.284c2.206-1.182 12.776 1.581 14.64 3.827.93 1.12-2.247 13.49-13.751 53.55-32.512 113.206-39.574 137.24-40.734 138.639-1.497 1.804-4.315 1.746-10.698-.219zM35.46 135.614C15.957 116.104 0 99.44 0 98.584c0-2.528 69.472-71.497 72.018-71.497 2.463 0 12.249 9.368 12.249 11.725 0 .835-13.065 14.615-29.032 30.621L26.203 98.536l29.032 29.156c16.644 16.717 29.032 29.984 29.032 31.095 0 2.268-9.668 12.3-11.854 12.3-.82 0-17.449-15.963-36.952-35.473zm149.987 30.292c-2.85-2.85-5.181-5.957-5.181-6.905 0-.948 10.464-12.177 23.255-24.953 12.79-12.775 25.838-26.008 28.996-29.406l5.742-6.177-28.997-29.067c-15.948-15.987-28.996-29.668-28.996-30.402 0-2.347 9.757-11.91 12.152-11.91 2.658 0 72.114 68.878 72.114 71.514 0 2.165-70.074 72.487-72.232 72.487-.92 0-4.004-2.332-6.853-5.181z"/></svg>